<svg width="500" height="501" viewBox="0 0 500 501" fill="none" xmlns="http://www.w3.org/2000/svg">
<path d="M250 0.730469C111.921 0.730469 0 112.651 0 250.73C0 388.81 111.921 500.73 250 500.73C388.079 500.73 500 388.81 500 250.73C500 112.651 388.079 0.730469 250 0.730469ZM217.35 372.811C217.35 374.187 216.239 375.298 214.863 375.298H139.861C138.468 375.298 137.356 374.187 137.356 372.811V270.151C137.356 268.775 138.468 267.646 139.861 267.646H214.863C216.239 267.646 217.35 268.775 217.35 270.151V372.811ZM177.362 243.975C151.132 243.975 129.86 222.702 129.86 196.472C129.86 170.243 151.132 148.97 177.362 148.97C203.591 148.97 224.864 170.243 224.864 196.472C224.864 222.702 203.591 243.975 177.362 243.975ZM385.292 375.298H300.448C299.319 375.298 298.314 374.54 298.031 373.429L234.672 128.42C234.266 126.851 235.465 125.298 237.088 125.298H321.933C323.079 125.298 324.067 126.074 324.349 127.168L387.709 372.176C388.115 373.764 386.933 375.298 385.292 375.298Z" fill="black"/>
</svg>
