<svg width="2312" height="501" viewBox="0 0 2312 501" fill="none" xmlns="http://www.w3.org/2000/svg">
<g clip-path="url(#clip0_1303_15274)">
<path d="M692.174 170.454H628.003C626.629 170.454 625.516 171.568 625.516 172.941V435.148C625.516 436.521 626.629 437.635 628.003 437.635H692.174C693.548 437.635 694.661 436.521 694.661 435.148V172.941C694.661 171.568 693.548 170.454 692.174 170.454Z" fill="black"/>
<path d="M1976.52 170.454H1912.38C1911 170.454 1909.88 171.576 1909.88 172.959V435.13C1909.88 436.513 1911 437.635 1912.38 437.635H1976.52C1977.9 437.635 1979.02 436.513 1979.02 435.13V172.959C1979.02 171.576 1977.9 170.454 1976.52 170.454Z" fill="black"/>
<path d="M659.488 138.633C688.48 138.633 711.982 115.13 711.982 86.1387C711.982 57.147 688.48 33.6445 659.488 33.6445C630.497 33.6445 606.994 57.147 606.994 86.1387C606.994 115.13 630.497 138.633 659.488 138.633Z" fill="black"/>
<path d="M1944.45 138.633C1973.44 138.633 1996.94 115.13 1996.94 86.1387C1996.94 57.147 1973.44 33.6445 1944.45 33.6445C1915.46 33.6445 1891.95 57.147 1891.95 86.1387C1891.95 115.13 1915.46 138.633 1944.45 138.633Z" fill="black"/>
<path d="M1807.18 175.586C1746.62 139.726 1651.02 158 1618.4 223.882C1585.31 288.389 1597.48 392.089 1666.97 428.02C1724.03 460 1812.93 448.341 1849.09 392.46C1849.76 391.419 1849.55 390.026 1848.61 389.214L1804.41 350.902C1803.21 349.861 1801.41 350.196 1800.6 351.555C1796.21 358.963 1790.56 365.86 1783.67 372.228C1783.6 372.298 1783.53 372.351 1783.45 372.404C1745.8 402.32 1673.03 378.172 1671.62 324.337C1671.59 322.944 1672.73 321.815 1674.13 321.815H1867.36C1868.69 321.815 1869.8 320.774 1869.87 319.451C1873.06 262.918 1857.19 204.409 1807.16 175.569L1807.18 175.586ZM1796.86 270.256H1675.19C1673.58 270.256 1672.42 268.774 1672.73 267.222C1675.64 252.899 1682.22 241.292 1692.49 232.402C1725.58 204.021 1795.36 218.326 1799.35 267.522C1799.47 268.986 1798.32 270.273 1796.86 270.273V270.256Z" fill="black"/>
<path d="M1250.22 164.333H1232.41C1219.97 164.333 1209.09 166.891 1199.76 172.024C1190.88 176.892 1184.41 184.406 1180.34 194.584C1179.95 195.537 1179.05 196.172 1178.03 196.172H1172.35C1170.97 196.172 1169.86 195.06 1169.86 193.685V172.959C1169.86 171.583 1168.75 170.471 1167.37 170.471H1104.31C1102.94 170.471 1101.82 171.583 1101.82 172.959V435.147C1101.82 436.523 1102.94 437.634 1104.31 437.634H1168.47C1169.84 437.634 1170.95 436.523 1170.95 435.147V282.886C1170.95 263.5 1176.61 249.142 1187.96 239.811C1199.3 230.48 1213.74 225.823 1231.31 225.823H1250.24C1251.62 225.823 1252.73 224.712 1252.73 223.336V166.855C1252.73 165.48 1251.62 164.368 1250.24 164.368L1250.22 164.333Z" fill="black"/>
<path d="M1361.37 195.625C1360.91 196.295 1360.15 196.719 1359.32 196.719H1353.25C1351.88 196.719 1350.75 195.607 1350.75 194.214V65.5009C1350.75 64.125 1349.64 62.9961 1348.24 62.9961H1284.09C1282.71 62.9961 1281.59 64.1074 1281.59 65.5009V435.147C1281.59 436.523 1282.7 437.652 1284.09 437.652H1337.64C1338.74 437.652 1339.71 436.929 1340.02 435.888L1349.09 406.484C1349.41 405.443 1350.38 404.72 1351.47 404.72H1358.1C1358.99 404.72 1359.78 405.178 1360.24 405.937C1387.26 450.511 1460.92 456.297 1506.04 429.15C1573.36 392.372 1583.34 284.809 1551.04 221.431C1518.76 152.48 1405.41 131.701 1361.35 195.643L1361.37 195.625ZM1349.64 298.902C1349.64 298.902 1349.64 298.761 1349.64 298.691C1346.41 187.599 1508.83 193.12 1498.92 304.176C1498.92 304.247 1498.92 304.335 1498.92 304.406C1502.15 415.55 1339.99 409.782 1349.64 298.92V298.902Z" fill="black"/>
<path d="M2309.26 62.9961H2245.11C2243.73 62.9961 2242.6 64.1074 2242.6 65.5009V194.214C2242.6 195.59 2241.49 196.719 2240.1 196.719H2234.1C2233.24 196.719 2232.44 196.26 2231.99 195.519C2214.77 167.72 2182.93 157.472 2148.2 157.754C2069.78 156.59 2019.49 229.051 2025.27 305.817C2025.27 305.888 2025.27 305.958 2025.27 306.046C2022.36 380.501 2073.99 446.031 2148.2 445.325C2188.17 445.978 2214.51 433.066 2233.08 405.813C2233.54 405.125 2234.31 404.72 2235.13 404.72H2241.83C2242.92 404.72 2243.89 405.425 2244.21 406.484C2245.96 412.199 2251.53 430.191 2253.29 435.906C2253.61 436.947 2254.58 437.652 2255.67 437.652H2309.23C2310.6 437.652 2311.73 436.541 2311.73 435.147V65.5009C2311.73 64.125 2310.62 62.9961 2309.23 62.9961H2309.26ZM2094.44 298.902C2094.44 298.902 2094.44 298.761 2094.44 298.691C2091.21 187.599 2253.63 193.12 2243.72 304.176C2243.72 304.247 2243.72 304.335 2243.72 304.406C2246.94 415.55 2084.79 409.782 2094.44 298.92V298.902Z" fill="black"/>
<path d="M980.221 64.8482C979.939 63.7546 978.951 62.9961 977.805 62.9961H850.432C849.303 62.9961 848.316 63.7546 848.016 64.8482L750.859 434.495C750.436 436.082 751.635 437.617 753.276 437.617H822.739C823.885 437.617 824.873 436.841 825.155 435.729L840.025 376.197C840.307 375.086 841.295 374.31 842.442 374.31H985.848C986.995 374.31 987.982 375.086 988.265 376.197L1003.13 435.729C1003.42 436.841 1004.4 437.617 1005.55 437.617H1075.01C1076.65 437.617 1077.84 436.065 1077.43 434.495L980.257 64.8482H980.221ZM967.856 307.334H860.381C858.758 307.334 857.576 305.817 857.964 304.229L903.579 121.47C903.861 120.359 904.849 119.583 905.996 119.583H922.224C923.37 119.583 924.358 120.359 924.64 121.47L970.255 304.229C970.643 305.799 969.461 307.334 967.839 307.334H967.856Z" fill="black"/>
<path d="M250.523 0.730469C112.444 0.730469 0.523438 112.651 0.523438 250.73C0.523438 388.81 112.444 500.73 250.523 500.73C388.603 500.73 500.523 388.81 500.523 250.73C500.523 112.651 388.603 0.730469 250.523 0.730469ZM217.873 372.811C217.873 374.187 216.762 375.298 215.386 375.298H140.384C138.991 375.298 137.88 374.187 137.88 372.811V270.151C137.88 268.775 138.991 267.646 140.384 267.646H215.386C216.762 267.646 217.873 268.775 217.873 270.151V372.811ZM177.885 243.975C151.656 243.975 130.383 222.702 130.383 196.472C130.383 170.243 151.656 148.97 177.885 148.97C204.115 148.97 225.388 170.243 225.388 196.472C225.388 222.702 204.115 243.975 177.885 243.975ZM385.816 375.298H300.971C299.843 375.298 298.837 374.54 298.555 373.429L235.195 128.42C234.789 126.851 235.989 125.298 237.612 125.298H322.456C323.603 125.298 324.59 126.074 324.873 127.168L388.232 372.176C388.638 373.764 387.456 375.298 385.816 375.298Z" fill="black"/>
</g>
<defs>
<clipPath id="clip0_1303_15274">
<rect width="2311.24" height="500" fill="white" transform="translate(0.523438 0.730469)"/>
</clipPath>
</defs>
</svg>
