<svg width="2312" height="500" viewBox="0 0 2312 500" fill="none" xmlns="http://www.w3.org/2000/svg">
<g clip-path="url(#clip0_1303_15286)">
<path d="M692.174 169.724H628.003C626.629 169.724 625.516 170.837 625.516 172.211V434.417C625.516 435.791 626.629 436.904 628.003 436.904H692.174C693.548 436.904 694.661 435.791 694.661 434.417V172.211C694.661 170.837 693.548 169.724 692.174 169.724Z" fill="white"/>
<path d="M1976.52 169.724H1912.38C1911 169.724 1909.88 170.845 1909.88 172.228V434.399C1909.88 435.783 1911 436.904 1912.38 436.904H1976.52C1977.9 436.904 1979.02 435.783 1979.02 434.399V172.228C1979.02 170.845 1977.9 169.724 1976.52 169.724Z" fill="white"/>
<path d="M659.488 137.902C688.48 137.902 711.982 114.4 711.982 85.4082C711.982 56.4165 688.48 32.9141 659.488 32.9141C630.497 32.9141 606.994 56.4165 606.994 85.4082C606.994 114.4 630.497 137.902 659.488 137.902Z" fill="white"/>
<path d="M1944.45 137.902C1973.44 137.902 1996.94 114.4 1996.94 85.4082C1996.94 56.4165 1973.44 32.9141 1944.45 32.9141C1915.46 32.9141 1891.95 56.4165 1891.95 85.4082C1891.95 114.4 1915.46 137.902 1944.45 137.902Z" fill="white"/>
<path d="M1807.18 174.856C1746.62 138.995 1651.02 157.27 1618.4 223.152C1585.31 287.658 1597.48 391.359 1666.97 427.29C1724.03 459.27 1812.93 447.61 1849.09 391.729C1849.76 390.689 1849.55 389.295 1848.61 388.484L1804.41 350.172C1803.21 349.131 1801.41 349.466 1800.6 350.824C1796.21 358.233 1790.56 365.13 1783.67 371.497C1783.6 371.568 1783.53 371.621 1783.45 371.674C1745.8 401.59 1673.03 377.442 1671.62 323.607C1671.59 322.213 1672.73 321.085 1674.13 321.085H1867.36C1868.69 321.085 1869.8 320.044 1869.87 318.721C1873.06 262.187 1857.19 203.678 1807.16 174.838L1807.18 174.856ZM1796.86 269.525H1675.19C1673.58 269.525 1672.42 268.044 1672.73 266.491C1675.64 252.168 1682.22 240.562 1692.49 231.672C1725.58 203.29 1795.36 217.595 1799.35 266.791C1799.47 268.255 1798.32 269.543 1796.86 269.543V269.525Z" fill="white"/>
<path d="M1250.22 163.603H1232.41C1219.97 163.603 1209.09 166.16 1199.76 171.293C1190.88 176.162 1184.41 183.676 1180.34 193.854C1179.95 194.806 1179.05 195.441 1178.03 195.441H1172.35C1170.97 195.441 1169.86 194.33 1169.86 192.954V172.228C1169.86 170.852 1168.75 169.741 1167.37 169.741H1104.31C1102.94 169.741 1101.82 170.852 1101.82 172.228V434.417C1101.82 435.793 1102.94 436.904 1104.31 436.904H1168.47C1169.84 436.904 1170.95 435.793 1170.95 434.417V282.155C1170.95 262.77 1176.61 248.412 1187.96 239.081C1199.3 229.749 1213.74 225.093 1231.31 225.093H1250.24C1251.62 225.093 1252.73 223.981 1252.73 222.606V166.125C1252.73 164.749 1251.62 163.638 1250.24 163.638L1250.22 163.603Z" fill="white"/>
<path d="M1361.37 194.895C1360.91 195.565 1360.15 195.988 1359.32 195.988H1353.25C1351.88 195.988 1350.75 194.877 1350.75 193.483V64.7704C1350.75 63.3945 1349.64 62.2656 1348.24 62.2656H1284.09C1282.71 62.2656 1281.59 63.3769 1281.59 64.7704V434.417C1281.59 435.793 1282.7 436.922 1284.09 436.922H1337.64C1338.74 436.922 1339.71 436.198 1340.02 435.158L1349.09 405.753C1349.41 404.713 1350.38 403.989 1351.47 403.989H1358.1C1358.99 403.989 1359.78 404.448 1360.24 405.206C1387.26 449.781 1460.92 455.566 1506.04 428.42C1573.36 391.642 1583.34 284.078 1551.04 220.701C1518.76 151.749 1405.41 130.97 1361.35 194.912L1361.37 194.895ZM1349.64 298.172C1349.64 298.172 1349.64 298.031 1349.64 297.96C1346.41 186.869 1508.83 192.39 1498.92 303.446C1498.92 303.517 1498.92 303.605 1498.92 303.675C1502.15 414.82 1339.99 409.052 1349.64 298.19V298.172Z" fill="white"/>
<path d="M2309.26 62.2656H2245.11C2243.73 62.2656 2242.6 63.3769 2242.6 64.7704V193.483C2242.6 194.859 2241.49 195.988 2240.1 195.988H2234.1C2233.24 195.988 2232.44 195.53 2231.99 194.789C2214.77 166.989 2182.93 156.741 2148.2 157.023C2069.78 155.859 2019.49 228.321 2025.27 305.086C2025.27 305.157 2025.27 305.228 2025.27 305.316C2022.36 379.771 2073.99 445.3 2148.2 444.595C2188.17 445.247 2214.51 432.335 2233.08 405.083C2233.54 404.395 2234.31 403.989 2235.13 403.989H2241.83C2242.92 403.989 2243.89 404.695 2244.21 405.753C2245.96 411.468 2251.53 429.46 2253.29 435.175C2253.61 436.216 2254.58 436.922 2255.67 436.922H2309.23C2310.6 436.922 2311.73 435.81 2311.73 434.417V64.7704C2311.73 63.3945 2310.62 62.2656 2309.23 62.2656H2309.26ZM2094.44 298.172C2094.44 298.172 2094.44 298.031 2094.44 297.96C2091.21 186.869 2253.63 192.39 2243.72 303.446C2243.72 303.517 2243.72 303.605 2243.72 303.675C2246.94 414.82 2084.79 409.052 2094.44 298.19V298.172Z" fill="white"/>
<path d="M980.221 64.1177C979.939 63.0241 978.951 62.2656 977.805 62.2656H850.432C849.303 62.2656 848.316 63.0241 848.016 64.1177L750.859 433.764C750.436 435.352 751.635 436.886 753.276 436.886H822.739C823.885 436.886 824.873 436.11 825.155 434.999L840.025 375.467C840.307 374.356 841.295 373.579 842.442 373.579H985.848C986.995 373.579 987.982 374.356 988.265 375.467L1003.13 434.999C1003.42 436.11 1004.4 436.886 1005.55 436.886H1075.01C1076.65 436.886 1077.84 435.334 1077.43 433.764L980.257 64.1177H980.221ZM967.856 306.603H860.381C858.758 306.603 857.576 305.086 857.964 303.499L903.579 120.739C903.861 119.628 904.849 118.852 905.996 118.852H922.224C923.37 118.852 924.358 119.628 924.64 120.739L970.255 303.499C970.643 305.069 969.461 306.603 967.839 306.603H967.856Z" fill="white"/>
<path d="M250.523 0C112.444 0 0.523438 111.921 0.523438 250C0.523438 388.079 112.444 500 250.523 500C388.603 500 500.523 388.079 500.523 250C500.523 111.921 388.603 0 250.523 0ZM217.873 372.081C217.873 373.457 216.762 374.568 215.386 374.568H140.384C138.991 374.568 137.88 373.457 137.88 372.081V269.421C137.88 268.045 138.991 266.916 140.384 266.916H215.386C216.762 266.916 217.873 268.045 217.873 269.421V372.081ZM177.885 243.244C151.656 243.244 130.383 221.971 130.383 195.742C130.383 169.512 151.656 148.24 177.885 148.24C204.115 148.24 225.388 169.512 225.388 195.742C225.388 221.971 204.115 243.244 177.885 243.244ZM385.816 374.568H300.971C299.843 374.568 298.837 373.809 298.555 372.698L235.195 127.69C234.789 126.12 235.989 124.568 237.612 124.568H322.456C323.603 124.568 324.59 125.344 324.873 126.438L388.232 371.446C388.638 373.033 387.456 374.568 385.816 374.568Z" fill="white"/>
</g>
<defs>
<clipPath id="clip0_1303_15286">
<rect width="2311.24" height="500" fill="white" transform="translate(0.523438)"/>
</clipPath>
</defs>
</svg>
