<svg width="1455" height="597" viewBox="0 0 1455 597" fill="none" xmlns="http://www.w3.org/2000/svg">
<path d="M464.298 169.293H427.918C427.139 169.293 426.508 169.924 426.508 170.703V319.353C426.508 320.132 427.139 320.763 427.918 320.763H464.298C465.077 320.763 465.708 320.132 465.708 319.353V170.703C465.708 169.924 465.077 169.293 464.298 169.293Z" fill="black"/>
<path d="M1192.42 169.293H1156.06C1155.27 169.293 1154.64 169.929 1154.64 170.713V319.343C1154.64 320.127 1155.27 320.763 1156.06 320.763H1192.42C1193.2 320.763 1193.84 320.127 1193.84 319.343V170.713C1193.84 169.929 1193.2 169.293 1192.42 169.293Z" fill="black"/>
<path d="M445.768 151.262C462.204 151.262 475.528 137.938 475.528 121.502C475.528 105.066 462.204 91.7422 445.768 91.7422C429.332 91.7422 416.008 105.066 416.008 121.502C416.008 137.938 429.332 151.262 445.768 151.262Z" fill="black"/>
<path d="M1174.24 151.262C1190.67 151.262 1204 137.938 1204 121.502C1204 105.066 1190.67 91.7422 1174.24 91.7422C1157.8 91.7422 1144.48 105.066 1144.48 121.502C1144.48 137.938 1157.8 151.262 1174.24 151.262Z" fill="black"/>
<path d="M1082.98 283.792C1061.63 300.752 1020.38 287.062 1019.58 256.542C1019.56 255.752 1020.21 255.112 1021 255.112H1130.55C1131.3 255.112 1131.93 254.522 1131.97 253.772C1133.78 221.722 1124.78 188.552 1096.42 172.202C1062.09 151.872 1007.89 162.232 989.397 199.582C970.637 236.152 977.537 294.942 1016.93 315.312C1049.28 333.442 1099.68 326.832 1120.18 295.152C1120.56 294.562 1120.44 293.772 1119.91 293.312L1094.85 271.592C1094.17 271.002 1093.15 271.192 1092.69 271.962C1090.2 276.162 1087 280.072 1083.09 283.682C1083.05 283.722 1083.01 283.752 1082.97 283.782L1082.98 283.792ZM1031.4 204.402C1050.16 188.312 1089.72 196.422 1091.98 224.312C1092.05 225.142 1091.4 225.872 1090.57 225.872H1021.59C1020.68 225.872 1020.02 225.032 1020.2 224.152C1021.85 216.032 1025.58 209.452 1031.4 204.412V204.402Z" fill="black"/>
<path d="M770.567 165.822C763.517 165.822 757.347 167.272 752.057 170.182C747.027 172.942 743.357 177.202 741.047 182.972C740.827 183.512 740.317 183.872 739.737 183.872H736.517C735.737 183.872 735.107 183.242 735.107 182.462V170.712C735.107 169.932 734.477 169.302 733.697 169.302H697.947C697.167 169.302 696.537 169.932 696.537 170.712V319.352C696.537 320.132 697.167 320.762 697.947 320.762H734.317C735.097 320.762 735.727 320.132 735.727 319.352V233.032C735.727 222.042 738.937 213.902 745.367 208.612C751.797 203.322 759.987 200.682 769.947 200.682H780.667C781.447 200.682 782.077 200.052 782.077 199.272V167.252C782.077 166.472 781.447 165.842 780.667 165.842H770.567V165.822Z" fill="black"/>
<path d="M951.208 198.183C932.908 159.093 868.647 147.313 843.667 183.563C843.407 183.943 842.978 184.183 842.508 184.183H839.068C838.288 184.183 837.648 183.553 837.648 182.763V109.793C837.648 109.013 837.017 108.373 836.227 108.373H799.857C799.077 108.373 798.438 109.003 798.438 109.793V319.353C798.438 320.133 799.067 320.773 799.857 320.773H830.218C830.838 320.773 831.388 320.363 831.568 319.773L836.708 303.103C836.888 302.513 837.437 302.103 838.057 302.103H841.818C842.318 302.103 842.768 302.363 843.028 302.793C858.348 328.063 900.108 331.343 925.688 315.953C963.847 295.103 969.508 234.123 951.198 198.193L951.208 198.183ZM921.658 245.223C923.488 308.233 831.558 304.963 837.028 242.113C837.028 242.073 837.028 242.033 837.028 241.993C835.198 179.013 927.278 182.143 921.658 245.103C921.658 245.143 921.658 245.193 921.658 245.233V245.223Z" fill="black"/>
<path d="M1381.06 108.373H1344.69C1343.91 108.373 1343.27 109.003 1343.27 109.793V182.763C1343.27 183.543 1342.64 184.183 1341.85 184.183H1338.45C1337.96 184.183 1337.51 183.923 1337.25 183.503C1327.49 167.743 1309.44 161.933 1289.75 162.093C1245.29 161.433 1216.78 202.513 1220.06 246.033C1220.06 246.073 1220.06 246.113 1220.06 246.163C1218.41 288.373 1247.68 325.523 1289.75 325.123C1312.41 325.493 1327.34 318.173 1337.87 302.723C1338.13 302.333 1338.57 302.103 1339.03 302.103H1342.83C1343.45 302.103 1344 302.503 1344.18 303.103C1345.17 306.343 1348.33 316.543 1349.33 319.783C1349.51 320.373 1350.06 320.773 1350.68 320.773H1381.04C1381.82 320.773 1382.46 320.143 1382.46 319.353V109.793C1382.46 109.013 1381.83 108.373 1381.04 108.373H1381.06ZM1343.9 245.223C1345.73 308.233 1253.8 304.963 1259.27 242.113C1259.27 242.073 1259.27 242.033 1259.27 241.993C1257.44 179.013 1349.52 182.143 1343.9 245.103C1343.9 245.143 1343.9 245.193 1343.9 245.233V245.223Z" fill="black"/>
<path d="M641.938 320.761H681.318C682.248 320.761 682.918 319.881 682.688 318.991L627.598 109.431C627.438 108.811 626.878 108.381 626.228 108.381H554.018C553.378 108.381 552.818 108.811 552.648 109.431L497.558 318.991C497.318 319.891 497.998 320.761 498.928 320.761H538.308C538.958 320.761 539.518 320.321 539.678 319.691L548.108 285.941C548.268 285.311 548.828 284.871 549.478 284.871H630.778C631.428 284.871 631.988 285.311 632.148 285.941L640.578 319.691C640.738 320.321 641.298 320.761 641.948 320.761H641.938ZM558.288 245.141L584.148 141.531C584.308 140.901 584.868 140.461 585.518 140.461H594.718C595.368 140.461 595.928 140.901 596.088 141.531L621.948 245.141C622.168 246.031 621.498 246.901 620.578 246.901H559.648C558.728 246.901 558.058 246.041 558.278 245.141H558.288Z" fill="black"/>
<path d="M213.918 356.53C292.193 356.53 355.648 293.076 355.648 214.8C355.648 136.525 292.193 73.0703 213.918 73.0703C135.642 73.0703 72.1875 136.525 72.1875 214.8C72.1875 293.076 135.642 356.53 213.918 356.53Z" fill="black"/>
<path d="M254.697 143.691H206.597C205.667 143.691 204.997 144.561 205.227 145.461L241.147 284.361C241.307 284.991 241.877 285.421 242.517 285.421H290.617C291.547 285.421 292.217 284.551 291.987 283.651L256.067 144.751C255.907 144.121 255.337 143.691 254.697 143.691Z" fill="white"/>
<path d="M193.987 224.391H151.477C150.692 224.391 150.057 225.026 150.057 225.811V284.001C150.057 284.785 150.692 285.421 151.477 285.421H193.987C194.771 285.421 195.407 284.785 195.407 284.001V225.811C195.407 225.026 194.771 224.391 193.987 224.391Z" fill="white"/>
<path d="M172.727 210.971C187.6 210.971 199.657 198.914 199.657 184.041C199.657 169.168 187.6 157.111 172.727 157.111C157.854 157.111 145.797 169.168 145.797 184.041C145.797 198.914 157.854 210.971 172.727 210.971Z" fill="white"/>
<path d="M427.372 525.281V392.281H457.772L493.112 515.211H495.582L530.922 392.281H561.322V525.281H545.932V402.731H543.272L508.122 525.281H480.572L445.422 402.731H442.762V525.281H427.372ZM588.536 525.281V432.371H603.546V525.281H588.536ZM596.136 417.931C592.843 417.931 590.056 416.855 587.776 414.701C585.623 412.548 584.546 409.825 584.546 406.531C584.546 403.111 585.623 400.325 587.776 398.171C590.056 396.018 592.843 394.941 596.136 394.941C599.43 394.941 602.153 396.018 604.306 398.171C606.46 400.325 607.536 403.111 607.536 406.531C607.536 409.825 606.46 412.548 604.306 414.701C602.153 416.855 599.43 417.931 596.136 417.931ZM670.639 527.941C662.659 527.941 655.312 526.041 648.599 522.241C641.885 518.441 636.565 512.931 632.639 505.711C628.712 498.491 626.749 489.941 626.749 480.061V477.591C626.749 467.711 628.712 459.225 632.639 452.131C636.565 444.911 641.822 439.401 648.409 435.601C655.122 431.675 662.532 429.711 670.639 429.711C677.099 429.711 682.545 430.598 686.979 432.371C691.539 434.018 695.212 436.171 697.999 438.831C700.785 441.365 702.939 444.088 704.459 447.001H707.119V392.281H722.129V525.281H707.499V509.891H704.839C702.305 514.578 698.379 518.758 693.059 522.431C687.739 526.105 680.265 527.941 670.639 527.941ZM674.629 514.641C684.255 514.641 692.045 511.601 697.999 505.521C704.079 499.315 707.119 490.701 707.119 479.681V477.971C707.119 466.951 704.079 458.401 697.999 452.321C692.045 446.115 684.255 443.011 674.629 443.011C665.129 443.011 657.275 446.115 651.069 452.321C644.989 458.401 641.949 466.951 641.949 477.971V479.681C641.949 490.701 644.989 499.315 651.069 505.521C657.275 511.601 665.129 514.641 674.629 514.641ZM783.984 525.281C778.664 525.281 774.547 523.825 771.634 520.911C768.847 517.998 767.454 514.008 767.454 508.941V445.481H739.524V432.371H767.454V399.311H782.464V432.371H812.864V445.481H782.464V506.661C782.464 510.461 784.301 512.361 787.974 512.361H808.684V525.281H783.984Z" fill="black"/>
</svg>
