<svg width="1455" height="596" viewBox="0 0 1455 596" fill="none" xmlns="http://www.w3.org/2000/svg">
<path d="M464.212 168.012H427.832C427.053 168.012 426.422 168.643 426.422 169.422V318.072C426.422 318.85 427.053 319.482 427.832 319.482H464.212C464.991 319.482 465.622 318.85 465.622 318.072V169.422C465.622 168.643 464.991 168.012 464.212 168.012Z" fill="black"/>
<path d="M1192.33 168.012H1155.97C1155.19 168.012 1154.55 168.647 1154.55 169.432V318.062C1154.55 318.846 1155.19 319.482 1155.97 319.482H1192.33C1193.12 319.482 1193.75 318.846 1193.75 318.062V169.432C1193.75 168.647 1193.12 168.012 1192.33 168.012Z" fill="black"/>
<path d="M445.682 149.981C462.118 149.981 475.442 136.657 475.442 120.221C475.442 103.785 462.118 90.4609 445.682 90.4609C429.246 90.4609 415.922 103.785 415.922 120.221C415.922 136.657 429.246 149.981 445.682 149.981Z" fill="black"/>
<path d="M1174.15 149.981C1190.59 149.981 1203.91 136.657 1203.91 120.221C1203.91 103.785 1190.59 90.4609 1174.15 90.4609C1157.72 90.4609 1144.39 103.785 1144.39 120.221C1144.39 136.657 1157.72 149.981 1174.15 149.981Z" fill="black"/>
<path d="M1082.89 282.511C1061.54 299.471 1020.29 285.781 1019.49 255.261C1019.47 254.471 1020.12 253.831 1020.91 253.831H1130.46C1131.21 253.831 1131.84 253.241 1131.88 252.491C1133.69 220.441 1124.69 187.271 1096.33 170.921C1062 150.591 1007.8 160.951 989.311 198.301C970.551 234.871 977.451 293.661 1016.84 314.031C1049.19 332.161 1099.59 325.551 1120.09 293.871C1120.47 293.281 1120.35 292.491 1119.82 292.031L1094.76 270.311C1094.08 269.721 1093.06 269.911 1092.6 270.681C1090.11 274.881 1086.91 278.791 1083 282.401C1082.96 282.441 1082.92 282.471 1082.88 282.501L1082.89 282.511ZM1031.31 203.121C1050.07 187.031 1089.63 195.141 1091.89 223.031C1091.96 223.861 1091.31 224.591 1090.48 224.591H1021.5C1020.59 224.591 1019.93 223.751 1020.11 222.871C1021.76 214.751 1025.49 208.171 1031.31 203.131V203.121Z" fill="black"/>
<path d="M770.481 164.541C763.431 164.541 757.261 165.991 751.971 168.901C746.941 171.661 743.271 175.921 740.961 181.691C740.741 182.231 740.231 182.591 739.651 182.591H736.431C735.651 182.591 735.021 181.961 735.021 181.181V169.431C735.021 168.651 734.391 168.021 733.611 168.021H697.861C697.081 168.021 696.451 168.651 696.451 169.431V318.071C696.451 318.851 697.081 319.481 697.861 319.481H734.231C735.011 319.481 735.641 318.851 735.641 318.071V231.751C735.641 220.761 738.851 212.621 745.281 207.331C751.711 202.041 759.901 199.401 769.861 199.401H780.581C781.361 199.401 781.991 198.771 781.991 197.991V165.971C781.991 165.191 781.361 164.561 780.581 164.561H770.481V164.541Z" fill="black"/>
<path d="M951.122 196.902C932.822 157.812 868.562 146.032 843.582 182.282C843.322 182.662 842.892 182.902 842.422 182.902H838.982C838.202 182.902 837.562 182.272 837.562 181.482V108.512C837.562 107.732 836.932 107.092 836.142 107.092H799.772C798.992 107.092 798.352 107.722 798.352 108.512V318.072C798.352 318.852 798.982 319.492 799.772 319.492H830.132C830.752 319.492 831.302 319.082 831.482 318.492L836.622 301.822C836.802 301.232 837.352 300.822 837.972 300.822H841.732C842.232 300.822 842.682 301.082 842.942 301.512C858.262 326.782 900.022 330.062 925.602 314.672C963.762 293.822 969.422 232.842 951.112 196.912L951.122 196.902ZM921.572 243.942C923.402 306.952 831.472 303.682 836.942 240.832C836.942 240.792 836.942 240.752 836.942 240.712C835.112 177.732 927.192 180.862 921.572 243.822C921.572 243.862 921.572 243.912 921.572 243.952V243.942Z" fill="black"/>
<path d="M1380.97 107.092H1344.6C1343.82 107.092 1343.18 107.722 1343.18 108.512V181.482C1343.18 182.262 1342.55 182.902 1341.76 182.902H1338.36C1337.87 182.902 1337.42 182.642 1337.16 182.222C1327.4 166.462 1309.35 160.652 1289.66 160.812C1245.2 160.152 1216.69 201.232 1219.97 244.752C1219.97 244.792 1219.97 244.832 1219.97 244.882C1218.32 287.092 1247.59 324.242 1289.66 323.842C1312.32 324.212 1327.25 316.892 1337.78 301.442C1338.04 301.052 1338.48 300.822 1338.94 300.822H1342.74C1343.36 300.822 1343.91 301.222 1344.09 301.822C1345.08 305.062 1348.24 315.262 1349.24 318.502C1349.42 319.092 1349.97 319.492 1350.59 319.492H1380.95C1381.73 319.492 1382.37 318.862 1382.37 318.072V108.512C1382.37 107.732 1381.74 107.092 1380.95 107.092H1380.97ZM1343.81 243.942C1345.64 306.952 1253.71 303.682 1259.18 240.832C1259.18 240.792 1259.18 240.752 1259.18 240.712C1257.35 177.732 1349.43 180.862 1343.81 243.822C1343.81 243.862 1343.81 243.912 1343.81 243.952V243.942Z" fill="black"/>
<path d="M641.852 319.48H681.232C682.162 319.48 682.832 318.6 682.602 317.71L627.512 108.15C627.352 107.53 626.792 107.1 626.142 107.1H553.932C553.292 107.1 552.732 107.53 552.562 108.15L497.472 317.71C497.232 318.61 497.912 319.48 498.842 319.48H538.222C538.872 319.48 539.432 319.04 539.592 318.41L548.022 284.66C548.182 284.03 548.742 283.59 549.392 283.59H630.692C631.342 283.59 631.902 284.03 632.062 284.66L640.492 318.41C640.652 319.04 641.212 319.48 641.862 319.48H641.852ZM558.202 243.86L584.062 140.25C584.222 139.62 584.782 139.18 585.432 139.18H594.632C595.282 139.18 595.842 139.62 596.002 140.25L621.862 243.86C622.082 244.75 621.412 245.62 620.492 245.62H559.562C558.642 245.62 557.972 244.76 558.192 243.86H558.202Z" fill="black"/>
<path d="M213.832 355.249C292.107 355.249 355.562 291.794 355.562 213.519C355.562 135.244 292.107 71.7891 213.832 71.7891C135.556 71.7891 72.1016 135.244 72.1016 213.519C72.1016 291.794 135.556 355.249 213.832 355.249Z" fill="black"/>
<path d="M254.611 142.41H206.511C205.581 142.41 204.911 143.28 205.141 144.18L241.061 283.08C241.221 283.71 241.791 284.14 242.431 284.14H290.531C291.461 284.14 292.131 283.27 291.901 282.37L255.981 143.47C255.821 142.84 255.251 142.41 254.611 142.41Z" fill="white"/>
<path d="M193.901 223.109H151.391C150.606 223.109 149.971 223.745 149.971 224.529V282.719C149.971 283.504 150.606 284.139 151.391 284.139H193.901C194.685 284.139 195.321 283.504 195.321 282.719V224.529C195.321 223.745 194.685 223.109 193.901 223.109Z" fill="white"/>
<path d="M172.641 209.69C187.514 209.69 199.571 197.633 199.571 182.76C199.571 167.887 187.514 155.83 172.641 155.83C157.768 155.83 145.711 167.887 145.711 182.76C145.711 197.633 157.768 209.69 172.641 209.69Z" fill="white"/>
<path d="M427.286 524V391H458.256L504.616 513.93H507.086V391H522.856V524H491.886L445.716 400.88H443.056V524H427.286ZM593.168 526.66C583.794 526.66 575.498 524.697 568.278 520.77C561.184 516.843 555.611 511.333 551.558 504.24C547.631 497.02 545.668 488.533 545.668 478.78V476.31C545.668 466.683 547.631 458.26 551.558 451.04C555.611 443.82 561.184 438.247 568.278 434.32C575.498 430.393 583.794 428.43 593.168 428.43C602.541 428.43 610.774 430.393 617.868 434.32C625.088 438.247 630.661 443.82 634.588 451.04C638.641 458.26 640.668 466.683 640.668 476.31V478.78C640.668 488.533 638.641 497.02 634.588 504.24C630.661 511.333 625.088 516.843 617.868 520.77C610.774 524.697 602.541 526.66 593.168 526.66ZM593.168 513.17C603.048 513.17 610.901 510.067 616.728 503.86C622.681 497.527 625.658 489.04 625.658 478.4V476.69C625.658 466.05 622.681 457.627 616.728 451.42C610.901 445.087 603.048 441.92 593.168 441.92C583.414 441.92 575.561 445.087 569.608 451.42C563.654 457.627 560.678 466.05 560.678 476.69V478.4C560.678 489.04 563.654 497.527 569.608 503.86C575.561 510.067 583.414 513.17 593.168 513.17ZM663.879 524V431.09H678.509V442.49H681.169C682.816 438.437 685.349 435.46 688.769 433.56C692.189 431.66 696.686 430.71 702.259 430.71H713.279V444.39H701.309C694.596 444.39 689.149 446.29 684.969 450.09C680.916 453.763 678.889 459.527 678.889 467.38V524H663.879ZM767.69 526.66C759.71 526.66 752.364 524.76 745.65 520.96C738.937 517.16 733.617 511.65 729.69 504.43C725.764 497.21 723.8 488.66 723.8 478.78V476.31C723.8 466.43 725.764 457.943 729.69 450.85C733.617 443.63 738.874 438.12 745.46 434.32C752.174 430.393 759.584 428.43 767.69 428.43C774.15 428.43 779.597 429.317 784.03 431.09C788.59 432.737 792.264 434.89 795.05 437.55C797.837 440.083 799.99 442.807 801.51 445.72H804.17V391H819.18V524H804.55V508.61H801.89C799.357 513.297 795.43 517.477 790.11 521.15C784.79 524.823 777.317 526.66 767.69 526.66ZM771.68 513.36C781.307 513.36 789.097 510.32 795.05 504.24C801.13 498.033 804.17 489.42 804.17 478.4V476.69C804.17 465.67 801.13 457.12 795.05 451.04C789.097 444.833 781.307 441.73 771.68 441.73C762.18 441.73 754.327 444.833 748.12 451.04C742.04 457.12 739 465.67 739 476.69V478.4C739 489.42 742.04 498.033 748.12 504.24C754.327 510.32 762.18 513.36 771.68 513.36Z" fill="black"/>
</svg>
