<svg width="1455" height="597" viewBox="0 0 1455 597" fill="none" xmlns="http://www.w3.org/2000/svg">
<path d="M465.489 169.934H429.109C428.331 169.934 427.699 170.565 427.699 171.344V319.994C427.699 320.772 428.331 321.404 429.109 321.404H465.489C466.268 321.404 466.899 320.772 466.899 319.994V171.344C466.899 170.565 466.268 169.934 465.489 169.934Z" fill="black"/>
<path d="M1193.61 169.934H1157.25C1156.47 169.934 1155.83 170.569 1155.83 171.354V319.984C1155.83 320.768 1156.47 321.404 1157.25 321.404H1193.61C1194.39 321.404 1195.03 320.768 1195.03 319.984V171.354C1195.03 170.569 1194.39 169.934 1193.61 169.934Z" fill="black"/>
<path d="M446.959 151.903C463.395 151.903 476.719 138.579 476.719 122.143C476.719 105.707 463.395 92.3828 446.959 92.3828C430.523 92.3828 417.199 105.707 417.199 122.143C417.199 138.579 430.523 151.903 446.959 151.903Z" fill="black"/>
<path d="M1175.43 151.903C1191.87 151.903 1205.19 138.579 1205.19 122.143C1205.19 105.707 1191.87 92.3828 1175.43 92.3828C1158.99 92.3828 1145.67 105.707 1145.67 122.143C1145.67 138.579 1158.99 151.903 1175.43 151.903Z" fill="black"/>
<path d="M1084.17 284.433C1062.82 301.393 1021.57 287.703 1020.77 257.183C1020.75 256.393 1021.4 255.753 1022.19 255.753H1131.74C1132.49 255.753 1133.12 255.163 1133.16 254.413C1134.97 222.363 1125.97 189.193 1097.61 172.843C1063.28 152.513 1009.08 162.873 990.588 200.223C971.828 236.793 978.728 295.583 1018.12 315.953C1050.47 334.083 1100.87 327.473 1121.37 295.793C1121.75 295.203 1121.63 294.413 1121.1 293.953L1096.04 272.233C1095.36 271.643 1094.34 271.833 1093.88 272.603C1091.39 276.803 1088.19 280.713 1084.28 284.323C1084.24 284.363 1084.2 284.393 1084.16 284.423L1084.17 284.433ZM1032.59 205.043C1051.35 188.953 1090.91 197.063 1093.17 224.953C1093.24 225.783 1092.59 226.513 1091.76 226.513H1022.78C1021.87 226.513 1021.21 225.673 1021.39 224.793C1023.04 216.673 1026.77 210.093 1032.59 205.053V205.043Z" fill="black"/>
<path d="M771.758 166.463C764.708 166.463 758.538 167.913 753.248 170.823C748.218 173.583 744.548 177.843 742.238 183.613C742.018 184.153 741.508 184.513 740.928 184.513H737.708C736.928 184.513 736.298 183.883 736.298 183.103V171.353C736.298 170.573 735.668 169.943 734.888 169.943H699.138C698.358 169.943 697.729 170.573 697.729 171.353V319.993C697.729 320.773 698.358 321.403 699.138 321.403H735.508C736.288 321.403 736.918 320.773 736.918 319.993V233.673C736.918 222.683 740.128 214.543 746.558 209.253C752.988 203.963 761.178 201.323 771.138 201.323H781.858C782.638 201.323 783.268 200.693 783.268 199.913V167.893C783.268 167.113 782.638 166.483 781.858 166.483H771.758V166.463Z" fill="black"/>
<path d="M952.399 198.824C934.099 159.734 869.839 147.954 844.859 184.204C844.599 184.584 844.169 184.824 843.699 184.824H840.259C839.479 184.824 838.839 184.194 838.839 183.404V110.434C838.839 109.654 838.209 109.014 837.419 109.014H801.049C800.269 109.014 799.629 109.644 799.629 110.434V319.994C799.629 320.774 800.259 321.414 801.049 321.414H831.409C832.029 321.414 832.579 321.004 832.759 320.414L837.899 303.744C838.079 303.154 838.629 302.744 839.249 302.744H843.009C843.509 302.744 843.959 303.004 844.219 303.434C859.539 328.704 901.299 331.984 926.879 316.594C965.039 295.744 970.699 234.764 952.389 198.834L952.399 198.824ZM922.849 245.864C924.679 308.874 832.749 305.604 838.219 242.754C838.219 242.714 838.219 242.674 838.219 242.634C836.389 179.654 928.469 182.784 922.849 245.744C922.849 245.784 922.849 245.834 922.849 245.874V245.864Z" fill="black"/>
<path d="M1382.25 109.014H1345.88C1345.1 109.014 1344.46 109.644 1344.46 110.434V183.404C1344.46 184.184 1343.83 184.824 1343.04 184.824H1339.64C1339.15 184.824 1338.7 184.564 1338.44 184.144C1328.68 168.384 1310.63 162.574 1290.94 162.734C1246.48 162.074 1217.97 203.154 1221.25 246.674C1221.25 246.714 1221.25 246.754 1221.25 246.804C1219.6 289.014 1248.87 326.164 1290.94 325.764C1313.6 326.134 1328.53 318.814 1339.06 303.364C1339.32 302.974 1339.76 302.744 1340.22 302.744H1344.02C1344.64 302.744 1345.19 303.144 1345.37 303.744C1346.36 306.984 1349.52 317.184 1350.52 320.424C1350.7 321.014 1351.25 321.414 1351.87 321.414H1382.23C1383.01 321.414 1383.65 320.784 1383.65 319.994V110.434C1383.65 109.654 1383.02 109.014 1382.23 109.014H1382.25ZM1345.09 245.864C1346.92 308.874 1254.99 305.604 1260.46 242.754C1260.46 242.714 1260.46 242.674 1260.46 242.634C1258.63 179.654 1350.71 182.784 1345.09 245.744C1345.09 245.784 1345.09 245.834 1345.09 245.874V245.864Z" fill="black"/>
<path d="M643.13 321.401H682.51C683.44 321.401 684.11 320.521 683.88 319.631L628.79 110.071C628.63 109.451 628.07 109.021 627.42 109.021H555.21C554.57 109.021 554.01 109.451 553.84 110.071L498.75 319.631C498.51 320.531 499.19 321.401 500.12 321.401H539.5C540.15 321.401 540.71 320.961 540.87 320.331L549.3 286.581C549.46 285.951 550.02 285.511 550.67 285.511H631.97C632.62 285.511 633.18 285.951 633.34 286.581L641.77 320.331C641.93 320.961 642.49 321.401 643.14 321.401H643.13ZM559.48 245.781L585.34 142.171C585.5 141.541 586.06 141.101 586.71 141.101H595.91C596.56 141.101 597.12 141.541 597.28 142.171L623.14 245.781C623.36 246.671 622.69 247.541 621.77 247.541H560.84C559.92 247.541 559.25 246.681 559.47 245.781H559.48Z" fill="black"/>
<path d="M215.109 357.171C293.384 357.171 356.839 293.716 356.839 215.441C356.839 137.166 293.384 73.7109 215.109 73.7109C136.834 73.7109 73.3789 137.166 73.3789 215.441C73.3789 293.716 136.834 357.171 215.109 357.171Z" fill="black"/>
<path d="M255.889 144.332H207.789C206.859 144.332 206.189 145.202 206.419 146.102L242.339 285.002C242.499 285.632 243.069 286.062 243.709 286.062H291.809C292.739 286.062 293.409 285.192 293.179 284.292L257.259 145.392C257.099 144.762 256.529 144.332 255.889 144.332Z" fill="white"/>
<path d="M195.178 225.031H152.668C151.884 225.031 151.248 225.667 151.248 226.451V284.641C151.248 285.426 151.884 286.061 152.668 286.061H195.178C195.962 286.061 196.598 285.426 196.598 284.641V226.451C196.598 225.667 195.962 225.031 195.178 225.031Z" fill="white"/>
<path d="M173.918 211.612C188.791 211.612 200.848 199.555 200.848 184.682C200.848 169.809 188.791 157.752 173.918 157.752C159.045 157.752 146.988 169.809 146.988 184.682C146.988 199.555 159.045 211.612 173.918 211.612Z" fill="white"/>
<path d="M471.019 528.582C461.392 528.582 452.779 526.872 445.179 523.452C437.579 520.032 431.562 514.902 427.129 508.062C422.822 501.095 420.669 492.419 420.669 482.032V478.042H436.439V482.032C436.439 493.052 439.669 501.285 446.129 506.732C452.589 512.052 460.885 514.712 471.019 514.712C481.405 514.712 489.322 512.369 494.769 507.682C500.216 502.995 502.939 497.105 502.939 490.012C502.939 485.072 501.672 481.145 499.139 478.232C496.732 475.319 493.312 472.975 488.879 471.202C484.445 469.302 479.252 467.655 473.299 466.262L463.419 463.792C455.692 461.765 448.852 459.295 442.899 456.382C436.945 453.469 432.259 449.669 428.839 444.982C425.545 440.169 423.899 434.025 423.899 426.552C423.899 419.079 425.735 412.619 429.409 407.172C433.209 401.725 438.465 397.545 445.179 394.632C452.019 391.719 459.872 390.262 468.739 390.262C477.732 390.262 485.775 391.845 492.869 395.012C500.089 398.052 505.725 402.612 509.779 408.692C513.959 414.645 516.049 422.182 516.049 431.302V439.282H500.279V431.302C500.279 424.842 498.885 419.649 496.099 415.722C493.439 411.795 489.702 408.882 484.889 406.982C480.202 405.082 474.819 404.132 468.739 404.132C459.999 404.132 452.969 406.095 447.649 410.022C442.329 413.822 439.669 419.269 439.669 426.362C439.669 431.049 440.809 434.849 443.089 437.762C445.369 440.675 448.599 443.082 452.779 444.982C456.959 446.755 461.962 448.339 467.789 449.732L477.669 452.202C485.395 453.849 492.299 456.129 498.379 459.042C504.586 461.829 509.526 465.692 513.199 470.632C516.872 475.445 518.709 481.779 518.709 489.632C518.709 497.485 516.745 504.325 512.819 510.152C508.892 515.979 503.319 520.539 496.099 523.832C489.005 526.999 480.645 528.582 471.019 528.582ZM582.982 528.582C573.609 528.582 565.312 526.619 558.092 522.692C550.999 518.765 545.426 513.255 541.372 506.162C537.446 498.942 535.482 490.455 535.482 480.702V478.232C535.482 468.605 537.446 460.182 541.372 452.962C545.426 445.742 550.999 440.169 558.092 436.242C565.312 432.315 573.609 430.352 582.982 430.352C592.356 430.352 600.589 432.315 607.682 436.242C614.902 440.169 620.476 445.742 624.402 452.962C628.456 460.182 630.482 468.605 630.482 478.232V480.702C630.482 490.455 628.456 498.942 624.402 506.162C620.476 513.255 614.902 518.765 607.682 522.692C600.589 526.619 592.356 528.582 582.982 528.582ZM582.982 515.092C592.862 515.092 600.716 511.989 606.542 505.782C612.496 499.449 615.472 490.962 615.472 480.322V478.612C615.472 467.972 612.496 459.549 606.542 453.342C600.716 447.009 592.862 443.842 582.982 443.842C573.229 443.842 565.376 447.009 559.422 453.342C553.469 459.549 550.492 467.972 550.492 478.612V480.322C550.492 490.962 553.469 499.449 559.422 505.782C565.376 511.989 573.229 515.092 582.982 515.092ZM555.242 537.702L545.742 532.002L610.722 422.372L620.222 428.072L555.242 537.702ZM653.693 525.922V433.012H668.323V444.412H670.983C672.63 440.359 675.163 437.382 678.583 435.482C682.003 433.582 686.5 432.632 692.073 432.632H703.093V446.312H691.123C684.41 446.312 678.963 448.212 674.783 452.012C670.73 455.685 668.703 461.449 668.703 469.302V525.922H653.693Z" fill="black"/>
</svg>
