<svg width="1455" height="596" viewBox="0 0 1455 596" fill="none" xmlns="http://www.w3.org/2000/svg">
<path d="M465.046 168.012H428.666C427.887 168.012 427.256 168.643 427.256 169.422V318.072C427.256 318.85 427.887 319.482 428.666 319.482H465.046C465.825 319.482 466.456 318.85 466.456 318.072V169.422C466.456 168.643 465.825 168.012 465.046 168.012Z" fill="black"/>
<path d="M1192.84 168.012H1156.48C1155.7 168.012 1155.06 168.647 1155.06 169.432V318.062C1155.06 318.846 1155.7 319.482 1156.48 319.482H1192.84C1193.63 319.482 1194.26 318.846 1194.26 318.062V169.432C1194.26 168.647 1193.63 168.012 1192.84 168.012Z" fill="black"/>
<path d="M446.192 149.981C462.628 149.981 475.952 136.657 475.952 120.221C475.952 103.785 462.628 90.4609 446.192 90.4609C429.756 90.4609 416.432 103.785 416.432 120.221C416.432 136.657 429.756 149.981 446.192 149.981Z" fill="black"/>
<path d="M1174.66 149.981C1191.1 149.981 1204.42 136.657 1204.42 120.221C1204.42 103.785 1191.1 90.4609 1174.66 90.4609C1158.23 90.4609 1144.9 103.785 1144.9 120.221C1144.9 136.657 1158.23 149.981 1174.66 149.981Z" fill="black"/>
<path d="M1083.4 282.511C1062.05 299.471 1020.8 285.781 1020 255.261C1019.98 254.471 1020.63 253.831 1021.42 253.831H1130.97C1131.72 253.831 1132.35 253.241 1132.39 252.491C1134.2 220.441 1125.2 187.271 1096.84 170.921C1062.51 150.591 1008.31 160.951 989.821 198.301C971.061 234.871 977.961 293.661 1017.35 314.031C1049.7 332.161 1100.1 325.551 1120.6 293.871C1120.98 293.281 1120.86 292.491 1120.33 292.031L1095.27 270.311C1094.59 269.721 1093.57 269.911 1093.11 270.681C1090.62 274.881 1087.42 278.791 1083.51 282.401C1083.47 282.441 1083.43 282.471 1083.39 282.501L1083.4 282.511ZM1031.82 203.121C1050.58 187.031 1090.14 195.141 1092.4 223.031C1092.47 223.861 1091.82 224.591 1090.99 224.591H1022.01C1021.1 224.591 1020.44 223.751 1020.62 222.871C1022.27 214.751 1026 208.171 1031.82 203.131V203.121Z" fill="black"/>
<path d="M770.991 164.541C763.941 164.541 757.771 165.991 752.481 168.901C747.451 171.661 743.781 175.921 741.471 181.691C741.251 182.231 740.741 182.591 740.161 182.591H736.941C736.161 182.591 735.531 181.961 735.531 181.181V169.431C735.531 168.651 734.901 168.021 734.121 168.021H698.371C697.591 168.021 696.961 168.651 696.961 169.431V318.071C696.961 318.851 697.591 319.481 698.371 319.481H734.741C735.521 319.481 736.151 318.851 736.151 318.071V231.751C736.151 220.761 739.361 212.621 745.791 207.331C752.221 202.041 760.411 199.401 770.371 199.401H781.091C781.871 199.401 782.501 198.771 782.501 197.991V165.971C782.501 165.191 781.871 164.561 781.091 164.561H770.991V164.541Z" fill="black"/>
<path d="M951.631 196.902C933.331 157.812 869.071 146.032 844.091 182.282C843.831 182.662 843.401 182.902 842.931 182.902H839.491C838.711 182.902 838.071 182.272 838.071 181.482V108.512C838.071 107.732 837.441 107.092 836.651 107.092H800.281C799.501 107.092 798.861 107.722 798.861 108.512V318.072C798.861 318.852 799.491 319.492 800.281 319.492H830.641C831.261 319.492 831.811 319.082 831.991 318.492L837.131 301.822C837.311 301.232 837.861 300.822 838.481 300.822H842.241C842.741 300.822 843.191 301.082 843.451 301.512C858.771 326.782 900.531 330.062 926.111 314.672C964.271 293.822 969.931 232.842 951.621 196.912L951.631 196.902ZM922.081 243.942C923.911 306.952 831.981 303.682 837.451 240.832C837.451 240.792 837.451 240.752 837.451 240.712C835.621 177.732 927.701 180.862 922.081 243.822C922.081 243.862 922.081 243.912 922.081 243.952V243.942Z" fill="black"/>
<path d="M1381.48 107.092H1345.11C1344.33 107.092 1343.69 107.722 1343.69 108.512V181.482C1343.69 182.262 1343.06 182.902 1342.27 182.902H1338.87C1338.38 182.902 1337.93 182.642 1337.67 182.222C1327.91 166.462 1309.86 160.652 1290.17 160.812C1245.71 160.152 1217.2 201.232 1220.48 244.752C1220.48 244.792 1220.48 244.832 1220.48 244.882C1218.83 287.092 1248.1 324.242 1290.17 323.842C1312.83 324.212 1327.76 316.892 1338.29 301.442C1338.55 301.052 1338.99 300.822 1339.45 300.822H1343.25C1343.87 300.822 1344.42 301.222 1344.6 301.822C1345.59 305.062 1348.75 315.262 1349.75 318.502C1349.93 319.092 1350.48 319.492 1351.1 319.492H1381.46C1382.24 319.492 1382.88 318.862 1382.88 318.072V108.512C1382.88 107.732 1382.25 107.092 1381.46 107.092H1381.48ZM1344.32 243.942C1346.15 306.952 1254.22 303.682 1259.69 240.832C1259.69 240.792 1259.69 240.752 1259.69 240.712C1257.86 177.732 1349.94 180.862 1344.32 243.822C1344.32 243.862 1344.32 243.912 1344.32 243.952V243.942Z" fill="black"/>
<path d="M642.362 319.48H681.742C682.672 319.48 683.342 318.6 683.112 317.71L628.022 108.15C627.862 107.53 627.302 107.1 626.652 107.1H554.442C553.802 107.1 553.242 107.53 553.072 108.15L497.982 317.71C497.742 318.61 498.422 319.48 499.352 319.48H538.732C539.382 319.48 539.942 319.04 540.102 318.41L548.532 284.66C548.692 284.03 549.252 283.59 549.902 283.59H631.202C631.852 283.59 632.412 284.03 632.572 284.66L641.002 318.41C641.162 319.04 641.722 319.48 642.372 319.48H642.362ZM558.712 243.86L584.572 140.25C584.732 139.62 585.292 139.18 585.942 139.18H595.142C595.792 139.18 596.352 139.62 596.512 140.25L622.372 243.86C622.592 244.75 621.922 245.62 621.002 245.62H560.072C559.152 245.62 558.482 244.76 558.702 243.86H558.712Z" fill="black"/>
<path d="M214.341 355.249C292.617 355.249 356.071 291.794 356.071 213.519C356.071 135.244 292.617 71.7891 214.341 71.7891C136.066 71.7891 72.6113 135.244 72.6113 213.519C72.6113 291.794 136.066 355.249 214.341 355.249Z" fill="black"/>
<path d="M255.121 142.41H207.021C206.091 142.41 205.421 143.28 205.651 144.18L241.571 283.08C241.731 283.71 242.301 284.14 242.941 284.14H291.041C291.971 284.14 292.641 283.27 292.411 282.37L256.491 143.47C256.331 142.84 255.761 142.41 255.121 142.41Z" fill="white"/>
<path d="M194.41 223.109H151.9C151.116 223.109 150.48 223.745 150.48 224.529V282.719C150.48 283.504 151.116 284.139 151.9 284.139H194.41C195.195 284.139 195.83 283.504 195.83 282.719V224.529C195.83 223.745 195.195 223.109 194.41 223.109Z" fill="white"/>
<path d="M173.151 209.69C188.024 209.69 200.081 197.633 200.081 182.76C200.081 167.887 188.024 155.83 173.151 155.83C158.278 155.83 146.221 167.887 146.221 182.76C146.221 197.633 158.278 209.69 173.151 209.69Z" fill="white"/>
<path d="M462.096 524L422.006 391H438.536L474.826 514.31H477.296L513.586 391H530.116L490.026 524H462.096ZM582.372 526.66C572.998 526.66 564.765 524.697 557.672 520.77C550.578 516.717 545.068 511.08 541.142 503.86C537.215 496.64 535.252 488.28 535.252 478.78V476.5C535.252 466.873 537.215 458.45 541.142 451.23C545.068 444.01 550.515 438.437 557.482 434.51C564.448 430.457 572.428 428.43 581.422 428.43C590.162 428.43 597.888 430.33 604.602 434.13C611.315 437.803 616.572 443.123 620.372 450.09C624.172 457.057 626.072 465.227 626.072 474.6V481.44H550.262C550.642 491.447 553.872 499.3 559.952 505C566.032 510.573 573.632 513.36 582.752 513.36C590.732 513.36 596.875 511.523 601.182 507.85C605.488 504.177 608.782 499.807 611.062 494.74L623.982 501.01C622.082 504.937 619.422 508.863 616.002 512.79C612.708 516.717 608.338 520.01 602.892 522.67C597.572 525.33 590.732 526.66 582.372 526.66ZM550.452 469.09H610.872C610.365 460.477 607.388 453.763 601.942 448.95C596.622 444.137 589.782 441.73 581.422 441.73C572.935 441.73 565.968 444.137 560.522 448.95C555.075 453.763 551.718 460.477 550.452 469.09ZM685.883 526.66C674.357 526.66 664.603 524 656.623 518.68C648.77 513.36 644.02 504.937 642.373 493.41L656.623 490.18C657.637 496.26 659.537 501.073 662.323 504.62C665.11 508.04 668.53 510.51 672.583 512.03C676.763 513.423 681.197 514.12 685.883 514.12C692.85 514.12 698.36 512.727 702.413 509.94C706.467 507.153 708.493 503.417 708.493 498.73C708.493 493.917 706.53 490.56 702.603 488.66C698.803 486.633 693.547 484.987 686.833 483.72L679.043 482.39C673.09 481.377 667.643 479.793 662.703 477.64C657.763 475.487 653.837 472.573 650.923 468.9C648.01 465.227 646.553 460.603 646.553 455.03C646.553 446.67 649.783 440.147 656.243 435.46C662.703 430.773 671.253 428.43 681.893 428.43C692.407 428.43 700.893 430.837 707.353 435.65C713.94 440.337 718.183 446.987 720.083 455.6L706.023 459.21C704.883 452.497 702.16 447.81 697.853 445.15C693.547 442.363 688.227 440.97 681.893 440.97C675.56 440.97 670.557 442.173 666.883 444.58C663.21 446.86 661.373 450.28 661.373 454.84C661.373 459.273 663.083 462.567 666.503 464.72C670.05 466.747 674.737 468.267 680.563 469.28L688.353 470.61C694.94 471.75 700.83 473.333 706.023 475.36C711.343 477.26 715.523 480.047 718.563 483.72C721.73 487.393 723.313 492.207 723.313 498.16C723.313 507.28 719.893 514.31 713.053 519.25C706.34 524.19 697.283 526.66 685.883 526.66ZM777.008 524C771.688 524 767.571 522.543 764.658 519.63C761.871 516.717 760.478 512.727 760.478 507.66V444.2H732.548V431.09H760.478V398.03H775.488V431.09H805.888V444.2H775.488V505.38C775.488 509.18 777.324 511.08 780.998 511.08H801.708V524H777.008Z" fill="black"/>
</svg>
