<svg width="1455" height="597" viewBox="0 0 1455 597" fill="none" xmlns="http://www.w3.org/2000/svg">
<path d="M464.212 167.934H427.832C427.053 167.934 426.422 168.565 426.422 169.344V317.994C426.422 318.772 427.053 319.404 427.832 319.404H464.212C464.991 319.404 465.622 318.772 465.622 317.994V169.344C465.622 168.565 464.991 167.934 464.212 167.934Z" fill="black"/>
<path d="M1192.33 167.934H1155.97C1155.19 167.934 1154.55 168.569 1154.55 169.354V317.984C1154.55 318.768 1155.19 319.404 1155.97 319.404H1192.33C1193.12 319.404 1193.75 318.768 1193.75 317.984V169.354C1193.75 168.569 1193.12 167.934 1192.33 167.934Z" fill="black"/>
<path d="M445.682 149.903C462.118 149.903 475.442 136.579 475.442 120.143C475.442 103.707 462.118 90.3828 445.682 90.3828C429.246 90.3828 415.922 103.707 415.922 120.143C415.922 136.579 429.246 149.903 445.682 149.903Z" fill="black"/>
<path d="M1174.15 149.903C1190.59 149.903 1203.91 136.579 1203.91 120.143C1203.91 103.707 1190.59 90.3828 1174.15 90.3828C1157.72 90.3828 1144.39 103.707 1144.39 120.143C1144.39 136.579 1157.72 149.903 1174.15 149.903Z" fill="black"/>
<path d="M1082.89 282.433C1061.54 299.393 1020.29 285.703 1019.49 255.183C1019.47 254.393 1020.12 253.753 1020.91 253.753H1130.46C1131.21 253.753 1131.84 253.163 1131.88 252.413C1133.69 220.363 1124.69 187.193 1096.33 170.843C1062 150.513 1007.8 160.873 989.311 198.223C970.551 234.793 977.451 293.583 1016.84 313.953C1049.19 332.083 1099.59 325.473 1120.09 293.793C1120.47 293.203 1120.35 292.413 1119.82 291.953L1094.76 270.233C1094.08 269.643 1093.06 269.833 1092.6 270.603C1090.11 274.803 1086.91 278.713 1083 282.323C1082.96 282.363 1082.92 282.393 1082.88 282.423L1082.89 282.433ZM1031.31 203.043C1050.07 186.953 1089.63 195.063 1091.89 222.953C1091.96 223.783 1091.31 224.513 1090.48 224.513H1021.5C1020.59 224.513 1019.93 223.673 1020.11 222.793C1021.76 214.673 1025.49 208.093 1031.31 203.053V203.043Z" fill="black"/>
<path d="M770.481 164.463C763.431 164.463 757.261 165.913 751.971 168.823C746.941 171.583 743.271 175.843 740.961 181.613C740.741 182.153 740.231 182.513 739.651 182.513H736.431C735.651 182.513 735.021 181.883 735.021 181.103V169.353C735.021 168.573 734.391 167.943 733.611 167.943H697.861C697.081 167.943 696.451 168.573 696.451 169.353V317.993C696.451 318.773 697.081 319.403 697.861 319.403H734.231C735.011 319.403 735.641 318.773 735.641 317.993V231.673C735.641 220.683 738.851 212.543 745.281 207.253C751.711 201.963 759.901 199.323 769.861 199.323H780.581C781.361 199.323 781.991 198.693 781.991 197.913V165.893C781.991 165.113 781.361 164.483 780.581 164.483H770.481V164.463Z" fill="black"/>
<path d="M951.122 196.824C932.822 157.734 868.562 145.954 843.582 182.204C843.322 182.584 842.892 182.824 842.422 182.824H838.982C838.202 182.824 837.562 182.194 837.562 181.404V108.434C837.562 107.654 836.932 107.014 836.142 107.014H799.772C798.992 107.014 798.352 107.644 798.352 108.434V317.994C798.352 318.774 798.982 319.414 799.772 319.414H830.132C830.752 319.414 831.302 319.004 831.482 318.414L836.622 301.744C836.802 301.154 837.352 300.744 837.972 300.744H841.732C842.232 300.744 842.682 301.004 842.942 301.434C858.262 326.704 900.022 329.984 925.602 314.594C963.762 293.744 969.422 232.764 951.112 196.834L951.122 196.824ZM921.572 243.864C923.402 306.874 831.472 303.604 836.942 240.754C836.942 240.714 836.942 240.674 836.942 240.634C835.112 177.654 927.192 180.784 921.572 243.744C921.572 243.784 921.572 243.834 921.572 243.874V243.864Z" fill="black"/>
<path d="M1380.97 107.014H1344.6C1343.82 107.014 1343.18 107.644 1343.18 108.434V181.404C1343.18 182.184 1342.55 182.824 1341.76 182.824H1338.36C1337.87 182.824 1337.42 182.564 1337.16 182.144C1327.4 166.384 1309.35 160.574 1289.66 160.734C1245.2 160.074 1216.69 201.154 1219.97 244.674C1219.97 244.714 1219.97 244.754 1219.97 244.804C1218.32 287.014 1247.59 324.164 1289.66 323.764C1312.32 324.134 1327.25 316.814 1337.78 301.364C1338.04 300.974 1338.48 300.744 1338.94 300.744H1342.74C1343.36 300.744 1343.91 301.144 1344.09 301.744C1345.08 304.984 1348.24 315.184 1349.24 318.424C1349.42 319.014 1349.97 319.414 1350.59 319.414H1380.95C1381.73 319.414 1382.37 318.784 1382.37 317.994V108.434C1382.37 107.654 1381.74 107.014 1380.95 107.014H1380.97ZM1343.81 243.864C1345.64 306.874 1253.71 303.604 1259.18 240.754C1259.18 240.714 1259.18 240.674 1259.18 240.634C1257.35 177.654 1349.43 180.784 1343.81 243.744C1343.81 243.784 1343.81 243.834 1343.81 243.874V243.864Z" fill="black"/>
<path d="M213.832 355.171C292.107 355.171 355.562 291.716 355.562 213.441C355.562 135.166 292.107 71.7109 213.832 71.7109C135.556 71.7109 72.1016 135.166 72.1016 213.441C72.1016 291.716 135.556 355.171 213.832 355.171Z" fill="black"/>
<path d="M254.611 142.332H206.511C205.581 142.332 204.911 143.202 205.141 144.102L241.061 283.002C241.221 283.632 241.791 284.062 242.431 284.062H290.531C291.461 284.062 292.131 283.192 291.901 282.292L255.981 143.392C255.821 142.762 255.251 142.332 254.611 142.332Z" fill="white"/>
<path d="M193.901 223.031H151.391C150.606 223.031 149.971 223.667 149.971 224.451V282.641C149.971 283.426 150.606 284.061 151.391 284.061H193.901C194.685 284.061 195.321 283.426 195.321 282.641V224.451C195.321 223.667 194.685 223.031 193.901 223.031Z" fill="white"/>
<path d="M172.641 209.612C187.514 209.612 199.571 197.555 199.571 182.682C199.571 167.809 187.514 155.752 172.641 155.752C157.768 155.752 145.711 167.809 145.711 182.682C145.711 197.555 157.768 209.612 172.641 209.612Z" fill="white"/>
<path d="M475.546 526.582C459.713 526.582 447.046 522.022 437.546 512.902C428.173 503.655 423.486 490.229 423.486 472.622V442.222C423.486 424.615 428.173 411.252 437.546 402.132C447.046 392.885 459.713 388.262 475.546 388.262C491.506 388.262 504.173 392.885 513.546 402.132C523.046 411.252 527.796 424.615 527.796 442.222V472.622C527.796 490.229 523.046 503.655 513.546 512.902C504.173 522.022 491.506 526.582 475.546 526.582ZM475.546 512.332C487.073 512.332 496.003 508.912 502.336 502.072C508.669 495.105 511.836 485.479 511.836 473.192V441.652C511.836 429.365 508.669 419.802 502.336 412.962C496.003 405.995 487.073 402.512 475.546 402.512C464.146 402.512 455.279 405.995 448.946 412.962C442.613 419.802 439.446 429.365 439.446 441.652V473.192C439.446 485.479 442.613 495.105 448.946 502.072C455.279 508.912 464.146 512.332 475.546 512.332ZM449.706 540.452L438.686 536.082L501.766 376.672L512.596 381.042L449.706 540.452ZM588.586 526.582C577.059 526.582 567.306 523.922 559.326 518.602C551.472 513.282 546.722 504.859 545.076 493.332L559.326 490.102C560.339 496.182 562.239 500.995 565.026 504.542C567.812 507.962 571.232 510.432 575.286 511.952C579.466 513.345 583.899 514.042 588.586 514.042C595.552 514.042 601.062 512.649 605.116 509.862C609.169 507.075 611.196 503.339 611.196 498.652C611.196 493.839 609.232 490.482 605.306 488.582C601.506 486.555 596.249 484.909 589.536 483.642L581.746 482.312C575.792 481.299 570.346 479.715 565.406 477.562C560.466 475.409 556.539 472.495 553.626 468.822C550.712 465.149 549.256 460.525 549.256 454.952C549.256 446.592 552.486 440.069 558.946 435.382C565.406 430.695 573.956 428.352 584.596 428.352C595.109 428.352 603.596 430.759 610.056 435.572C616.642 440.259 620.886 446.909 622.786 455.522L608.726 459.132C607.586 452.419 604.862 447.732 600.556 445.072C596.249 442.285 590.929 440.892 584.596 440.892C578.262 440.892 573.259 442.095 569.586 444.502C565.912 446.782 564.076 450.202 564.076 454.762C564.076 459.195 565.786 462.489 569.206 464.642C572.752 466.669 577.439 468.189 583.266 469.202L591.056 470.532C597.642 471.672 603.532 473.255 608.726 475.282C614.046 477.182 618.226 479.969 621.266 483.642C624.432 487.315 626.016 492.129 626.016 498.082C626.016 507.202 622.596 514.232 615.756 519.172C609.042 524.112 599.986 526.582 588.586 526.582ZM679.71 523.922C674.39 523.922 670.273 522.465 667.36 519.552C664.573 516.639 663.18 512.649 663.18 507.582V444.122H635.25V431.012H663.18V397.952H678.19V431.012H708.59V444.122H678.19V505.302C678.19 509.102 680.027 511.002 683.7 511.002H704.41V523.922H679.71Z" fill="black"/>
<path d="M641.852 319.401H681.232C682.162 319.401 682.832 318.521 682.602 317.631L627.512 108.071C627.352 107.451 626.792 107.021 626.142 107.021H553.932C553.292 107.021 552.732 107.451 552.562 108.071L497.472 317.631C497.232 318.531 497.912 319.401 498.842 319.401H538.222C538.872 319.401 539.432 318.961 539.592 318.331L548.022 284.581C548.182 283.951 548.742 283.511 549.392 283.511H630.692C631.342 283.511 631.902 283.951 632.062 284.581L640.492 318.331C640.652 318.961 641.212 319.401 641.862 319.401H641.852ZM558.202 243.781L584.062 140.171C584.222 139.541 584.782 139.101 585.432 139.101H594.632C595.282 139.101 595.842 139.541 596.002 140.171L621.862 243.781C622.082 244.671 621.412 245.541 620.492 245.541H559.562C558.642 245.541 557.972 244.681 558.192 243.781H558.202Z" fill="black"/>
</svg>
